<svg width="45" height="45" viewBox="0 0 45 45" fill="none" xmlns="http://www.w3.org/2000/svg">
<rect width="45" height="45" fill="white"/>
<path d="M42.6754 12.1174L42.6767 12.1188C42.6935 12.1372 42.7054 12.1544 42.7092 12.1598L42.7094 12.1601C42.7562 12.2191 42.7939 12.284 42.822 12.3549L42.8233 12.3577L42.8258 12.3635C42.8294 12.3718 42.8369 12.3894 42.8437 12.4117M42.6754 12.1174L42.5546 12.5M42.6754 12.1174C42.632 12.0703 42.5766 12.0187 42.5058 11.9753L42.5058 11.9753L42.5018 11.9729C42.4887 11.9651 42.4763 11.959 42.4661 11.9543M42.6754 12.1174L42.4661 11.9543M42.8437 12.4117C42.844 12.4127 42.8443 12.4137 42.8446 12.4147L42.5546 12.5M42.8437 12.4117C42.8435 12.4112 42.8433 12.4106 42.8432 12.4101L42.5546 12.5M42.8437 12.4117C42.8634 12.4753 42.8814 12.5543 42.8814 12.6444V31.4515C42.8814 31.7455 42.7171 32.0155 42.4546 32.1495L42.4547 32.1494L42.3167 31.8804M42.5546 12.5C42.569 12.5465 42.5791 12.5942 42.5791 12.6444V31.4515C42.5791 31.6325 42.4779 31.7984 42.3167 31.8804M42.3167 31.8804L42.4539 32.1498M42.3167 31.8804L42.4539 32.1498M42.4539 32.1498L23.6503 41.7927M42.4539 32.1498L23.6503 41.7927M23.6503 41.7927L23.5096 41.5252L23.6475 41.7941L23.6481 41.7938C23.6488 41.7934 23.6496 41.7931 23.6503 41.7927ZM23.5842 41.8185C23.5955 41.8138 23.6065 41.8089 23.6173 41.8039M23.5842 41.8185L23.6191 41.803L23.6173 41.8039M23.5842 41.8185C23.5788 41.82 23.5738 41.8212 23.5691 41.8222C23.559 41.8244 23.5504 41.8258 23.5446 41.8266L23.5359 41.8277C23.5388 41.8273 23.5445 41.8265 23.5519 41.8251C23.5665 41.8223 23.5902 41.8165 23.6173 41.8039M23.5842 41.8185L23.6173 41.8039M42.4661 11.9543C42.4589 11.9499 42.4509 11.9454 42.4422 11.941L42.4394 11.9397L23.6333 2.77775C23.6331 2.77764 23.6329 2.77753 23.6327 2.77743C23.4163 2.67113 23.1614 2.67114 22.945 2.77747C22.9448 2.77756 22.9446 2.77766 22.9444 2.77775L4.1384 11.9397L4.13839 11.9397L4.1356 11.9411C4.12626 11.9457 4.11783 11.9505 4.11033 11.9552C4.10372 11.9581 4.09589 11.9619 4.08734 11.9665L4.07955 11.9707L4.07202 11.9753C4.00122 12.0187 3.94574 12.0703 3.90234 12.1174L3.90233 12.1174L3.90112 12.1188C3.8843 12.1373 3.87234 12.1544 3.86855 12.1598L3.8685 12.1599C3.81952 12.2215 3.78306 12.2874 3.75611 12.3541L3.7561 12.354L3.75582 12.3548L3.75496 12.3567L3.75276 12.3616C3.74948 12.3691 3.74206 12.386 3.73527 12.407L3.73499 12.4069L3.73144 12.4198C3.71581 12.4766 3.69772 12.5545 3.69772 12.6444V31.4516C3.69772 31.7457 3.86224 32.0155 4.12444 32.1498L42.4661 11.9543ZM16.4132 28.1577L16.4131 28.1576L10.8118 25.2317L16.4132 28.1577ZM16.4132 28.1577C16.5272 28.2171 16.6516 28.2468 16.7764 28.2468C16.9173 28.2468 17.0582 28.209 17.1835 28.1329L17.1837 28.1328M16.4132 28.1577L17.1837 28.1328M17.1837 28.1328C17.418 27.9902 17.561 27.7364 17.561 27.4621V20.2326L22.5057 22.7687V39.8123L5.26755 30.9719L5.26762 13.9289M17.1837 28.1328L5.26762 13.9289M5.26762 13.9289L10.3899 16.5557V24.5363C10.3899 24.8287 10.5523 25.0965 10.8113 25.2315L5.26762 13.9289ZM22.9958 41.8192C22.9992 41.8201 23.0025 41.8209 23.0055 41.8216C23.024 41.8259 23.0394 41.8277 23.042 41.828L23.0421 41.828C23.0403 41.8278 23.0358 41.8272 23.0299 41.8261C23.0182 41.824 22.9971 41.8193 22.9721 41.8088L23.0894 41.5302L22.963 41.8048C22.9737 41.8097 22.9846 41.8145 22.9958 41.8192ZM4.12472 32.1499L22.9288 41.793C22.9297 41.7935 22.9307 41.794 22.9316 41.7945L23.0696 41.5255L4.12472 32.1499ZM42.5157 11.9917C42.5165 11.9924 42.5168 11.9927 42.5164 11.9923L42.5157 11.9917ZM40.3426 12.6624L23.2899 21.4073L18.3889 18.8939L35.4255 10.267L40.3426 12.6624ZM11.9591 24.0601V17.3599L15.9916 19.4277V26.1666L11.9591 24.0601ZM12.9025 16.0804L29.7979 7.52498L33.6556 9.40412L16.6629 18.0094L12.9025 16.0804ZM23.2903 4.35474L28.0279 6.66268L11.1772 15.1956L6.23779 12.6624L23.2903 4.35474ZM41.313 13.9297V30.9725L24.0748 39.8129V22.7693L41.313 13.9297Z" fill="#A65E34" stroke="#A65E34" stroke-width="0.604569"/>
</svg>
