<svg width="17" height="17" viewBox="0 0 17 17" fill="none" xmlns="http://www.w3.org/2000/svg">
<path d="M6.55851 16.2036C6.31787 16.1688 6.10153 16.0356 5.95231 15.8366L0.835996 9.21945C0.642746 9.02495 0.537101 8.75429 0.53847 8.4758L0.538471 8.47564C0.540065 8.19174 0.652616 7.91666 0.856078 7.72358C1.06057 7.52923 1.33688 7.43786 1.61355 7.48086L1.61374 7.48089C1.88493 7.52328 2.11888 7.68898 2.2636 7.92525L6.6374 13.5721L14.9624 1.65543C15.1013 1.42362 15.3258 1.25775 15.5884 1.20785M6.55851 16.2036L15.5884 1.20785M6.55851 16.2036L6.56722 16.2125H6.66457H6.6823V16.2127L6.69037 16.2124C6.98223 16.2022 7.24656 16.048 7.41428 15.8052C7.41443 15.805 7.41458 15.8048 7.41473 15.8046L16.461 2.86765L6.55851 16.2036ZM15.5884 1.20785C15.5884 1.20786 15.5884 1.20786 15.5883 1.20787L15.6315 1.43456L15.5885 1.20784C15.8551 1.15707 16.1257 1.2325 16.3338 1.40867L15.5884 1.20785ZM6.78541 13.7632L6.64699 13.9613L6.49898 13.7702L6.78541 13.7632Z" fill="white" stroke="white" stroke-width="0.461538"/>
</svg>
