<svg width="45" height="45" viewBox="0 0 45 45" fill="none" xmlns="http://www.w3.org/2000/svg">
<rect width="45" height="45" fill="white"/>
<path d="M23.1572 6.00007C27.2588 6.00007 30.5833 9.26034 30.5833 13.2825C30.5833 15.7593 29.3227 17.9474 27.3961 19.2631C27.6828 19.3723 27.9644 19.4931 28.2397 19.6237C28.2501 19.6288 28.2604 19.6339 28.2708 19.6386C28.3211 19.6626 28.371 19.6872 28.421 19.7119C28.4425 19.7224 28.4639 19.7333 28.4854 19.7438C28.512 19.7576 28.5387 19.7711 28.5653 19.7848C28.6012 19.803 28.6363 19.8215 28.6715 19.84C28.6904 19.8502 28.7092 19.86 28.7277 19.8701C29.1285 20.0835 29.5162 20.3201 29.8892 20.5788C29.8985 20.5857 29.9081 20.5926 29.9174 20.5991C29.9484 20.6198 29.9784 20.6412 30.0088 20.6626C29.6968 20.0004 29.5226 19.2624 29.5226 18.4844C29.5226 15.6113 31.8977 13.2825 34.8271 13.2825C37.7569 13.2825 40.1316 15.6113 40.1316 18.4844C40.1316 20.0247 39.4489 21.4086 38.3641 22.3611C41.2857 23.6757 43.3145 26.5699 43.3145 29.9284V33.6615C43.3145 34.086 43.0518 34.4678 42.6503 34.6264C40.051 35.6547 37.4413 36.1707 34.8271 36.1707C34.4534 36.1707 34.0797 36.1601 33.7056 36.1391L34.012 36.1532L33.7681 36.2476C33.501 36.3484 33.2335 36.4457 32.9663 36.5393L32.8653 36.5741C32.7606 36.6104 32.6559 36.6464 32.5511 36.6812C32.5267 36.6895 32.5019 36.6975 32.4775 36.7059C32.3743 36.74 32.271 36.7737 32.1678 36.8071C32.1149 36.8238 32.062 36.8408 32.0087 36.8575C31.924 36.884 31.8396 36.9105 31.7549 36.9363C31.709 36.9504 31.6627 36.9646 31.6165 36.9784C31.5307 37.0041 31.4452 37.0295 31.3593 37.0546C31.3175 37.0669 31.2753 37.0792 31.2332 37.0912C31.1288 37.1213 31.0245 37.1507 30.9201 37.1794C30.9094 37.1823 30.8987 37.1855 30.8879 37.1884C30.7688 37.2211 30.6497 37.2534 30.5305 37.2846C30.4957 37.2937 30.461 37.3027 30.4262 37.3118C30.3388 37.3343 30.2519 37.3565 30.1649 37.3782C30.0987 37.3945 30.0321 37.4109 29.9655 37.4272C29.8952 37.4443 29.8253 37.461 29.755 37.4773C29.705 37.4889 29.6554 37.5005 29.6058 37.5121C29.5193 37.5317 29.4327 37.5513 29.3461 37.5702C29.285 37.584 29.224 37.597 29.1629 37.6101C29.0937 37.625 29.0246 37.6395 28.9554 37.6536C28.9039 37.6645 28.8518 37.675 28.8 37.6852C28.7045 37.7044 28.6087 37.7233 28.5132 37.7414C28.4788 37.748 28.4447 37.7545 28.4107 37.7607C28.3167 37.7784 28.2227 37.7955 28.1284 37.8122C28.0795 37.8209 28.0311 37.8292 27.9822 37.8376C27.9045 37.851 27.8268 37.8641 27.7491 37.8768C27.6818 37.8877 27.6144 37.8982 27.5471 37.9087C27.5008 37.916 27.4546 37.9232 27.4087 37.9301C27.314 37.9446 27.2193 37.9584 27.1245 37.9718C27.0872 37.9769 27.0494 37.9824 27.0117 37.9875C26.9255 37.9991 26.8389 38.0107 26.7527 38.0216C26.692 38.0295 26.6306 38.0372 26.5695 38.0444C26.4981 38.0531 26.4274 38.0615 26.3564 38.0695C26.2861 38.0774 26.2158 38.0854 26.1451 38.0927C26.0826 38.0996 26.0204 38.1057 25.9579 38.1123C25.8861 38.1192 25.8139 38.1261 25.7418 38.133C25.6815 38.1384 25.6212 38.1438 25.5605 38.1489C25.5013 38.154 25.4421 38.1587 25.3829 38.1634C25.2989 38.17 25.2149 38.1765 25.1305 38.1823C25.1109 38.1838 25.0913 38.1852 25.0713 38.1863C24.9644 38.1936 24.8571 38.2004 24.7501 38.2066C24.2192 38.2364 23.6882 38.2516 23.1573 38.2516C19.4834 38.2516 15.8136 37.5317 12.1542 36.0963L12.3022 36.1532L12.0483 36.163L11.8615 36.1674L11.4874 36.1707C8.87322 36.1707 6.26358 35.6547 3.66417 34.6264C3.26271 34.4678 3 34.0861 3 33.6615V29.9284C3 26.5699 5.02879 23.6758 7.95045 22.3604C6.86558 21.4086 6.18291 20.0246 6.18291 18.4843C6.18291 15.6112 8.55763 13.2824 11.4874 13.2824C14.4169 13.2824 16.792 15.6112 16.792 18.4843C16.792 19.2623 16.6177 20.0007 16.3054 20.6632C16.6388 20.4252 16.9847 20.2053 17.3418 20.0039L17.4761 19.9296C17.4879 19.923 17.5001 19.9165 17.512 19.91C17.5353 19.8973 17.5586 19.8846 17.5823 19.8719C17.6193 19.8523 17.6566 19.8327 17.6936 19.8134C17.7203 19.7993 17.7473 19.7855 17.7743 19.7717C18.1447 19.5827 18.5266 19.4125 18.9184 19.2626C16.9917 17.9473 15.7311 15.7593 15.7311 13.2824C15.7311 9.26018 19.0557 6 23.1573 6L23.1572 6.00007ZM23.1572 20.5653L22.9474 20.5678C22.816 20.5704 22.6851 20.5758 22.5548 20.5838C22.5374 20.5849 22.5204 20.586 22.5034 20.5871L22.5548 20.5838C22.4989 20.5874 22.4434 20.5911 22.3883 20.5954L22.5034 20.5871C22.4357 20.5914 22.3683 20.5969 22.3013 20.6027L22.3883 20.5954C22.1607 20.6132 21.935 20.639 21.7112 20.6723C21.7086 20.6727 21.7053 20.6731 21.7023 20.6734L21.7112 20.6723C21.6446 20.6825 21.5776 20.693 21.511 20.7043L21.7023 20.6734C21.6342 20.6836 21.5661 20.6945 21.4984 20.7061L21.511 20.7043C21.1739 20.762 20.842 20.8367 20.516 20.9285C20.5116 20.9296 20.5071 20.9307 20.5023 20.9321L20.516 20.9285C20.3255 20.9822 20.1368 21.0417 19.9506 21.1067C19.9255 21.1154 19.9003 21.1241 19.8752 21.1332L19.9506 21.1067C19.8977 21.1252 19.8448 21.1441 19.7923 21.1633L19.8751 21.1332C19.8174 21.1539 19.7601 21.1753 19.7027 21.197L19.7923 21.1633C19.7401 21.1825 19.6883 21.2021 19.6369 21.2224L19.7027 21.197C19.4378 21.2979 19.1788 21.41 18.9261 21.5327C18.9176 21.5363 18.9098 21.5399 18.9016 21.5439L18.9261 21.5327C18.6826 21.651 18.4454 21.7787 18.2142 21.9162C18.2031 21.922 18.1923 21.9285 18.1816 21.9347L18.2142 21.9162C17.466 22.3611 16.7848 22.9039 16.1898 23.5266C16.1883 23.5276 16.1872 23.5291 16.1858 23.5302L16.1898 23.5266C16.1513 23.5668 16.1132 23.6071 16.0759 23.6481C16.054 23.671 16.0329 23.6942 16.0118 23.7178L16.0759 23.6481C16.0266 23.7011 15.9778 23.7552 15.9301 23.8096C15.9034 23.8397 15.8772 23.8698 15.8509 23.9003L15.9301 23.8096C14.4836 25.4508 13.609 27.5894 13.609 29.9287V34.4168L13.7163 34.4568C13.8424 34.5028 13.969 34.5475 14.0952 34.5917C14.154 34.6121 14.2128 34.6324 14.2717 34.6523C14.6372 34.7772 15.0021 34.8944 15.3672 35.0036C15.5511 35.0587 15.735 35.1117 15.9189 35.1629C16.3685 35.288 16.8181 35.4016 17.2672 35.5032C17.5092 35.558 17.7508 35.6095 17.9928 35.6578C18.2851 35.7159 18.5771 35.7688 18.869 35.8171C19.0403 35.8454 19.2113 35.8719 19.3826 35.8966C19.635 35.9332 19.8869 35.9662 20.1393 35.9956C20.4338 36.0297 20.7283 36.0591 21.0229 36.0834C21.1261 36.0918 21.229 36.0997 21.3318 36.107C21.5361 36.1212 21.7407 36.1331 21.9449 36.1426C22.2236 36.1556 22.5014 36.1643 22.7793 36.1683L22.756 36.1672L22.7793 36.1683L23.1571 36.1709L23.5349 36.1683C23.7514 36.1651 23.9682 36.1593 24.1846 36.1505C24.2268 36.1491 24.269 36.1473 24.3116 36.1455L24.1846 36.1505C24.2905 36.1466 24.3963 36.1418 24.5018 36.136L24.3116 36.1455C24.4389 36.1397 24.5658 36.1331 24.6931 36.1255L24.5018 36.136C24.6413 36.1291 24.7811 36.1204 24.9206 36.111L24.6931 36.1255C24.8207 36.1179 24.948 36.1095 25.0753 36.1001L24.9206 36.111C25.0427 36.1026 25.1648 36.0936 25.2873 36.0838L25.0753 36.1001C25.2063 36.0903 25.3376 36.0798 25.4686 36.0682L25.2873 36.0838C25.405 36.074 25.5226 36.0635 25.6403 36.0522L25.4686 36.0682C25.5974 36.0566 25.7261 36.0442 25.8549 36.0308L25.6403 36.0522C25.7994 36.037 25.9585 36.0203 26.1173 36.0021L25.8549 36.0308C25.9715 36.0188 26.0877 36.0058 26.2042 35.9923L26.1173 36.0021C26.222 35.9905 26.3263 35.9778 26.4307 35.9648L26.2042 35.9923C26.3541 35.9746 26.5039 35.9557 26.6538 35.9357L26.4307 35.9648C26.5491 35.9499 26.6671 35.9339 26.7855 35.9176L26.6538 35.9357C26.7751 35.9194 26.8965 35.902 27.0179 35.8842L26.7855 35.9176C26.9276 35.8976 27.0697 35.8766 27.2118 35.8545L27.0179 35.8842C27.1374 35.8664 27.2569 35.8476 27.3764 35.8283L27.2118 35.8545C27.3561 35.832 27.5008 35.8084 27.6451 35.7833L27.3764 35.8283C27.4952 35.8091 27.614 35.7888 27.7324 35.7681L27.6451 35.7833C27.7653 35.7627 27.8852 35.7409 28.0054 35.7184L27.7324 35.7681C27.883 35.7416 28.0332 35.7137 28.1838 35.6846L28.0054 35.7184C28.1116 35.6988 28.2178 35.6781 28.324 35.6571L28.1838 35.6846C28.3274 35.6571 28.4709 35.628 28.6145 35.5979L28.324 35.6571C28.4558 35.6309 28.5871 35.6037 28.7185 35.5758L28.6145 35.5979C28.7277 35.574 28.8406 35.5497 28.9538 35.5243L28.7185 35.5758C28.8594 35.5457 29 35.5145 29.141 35.4818L28.9538 35.5243C29.0788 35.4963 29.2035 35.4677 29.3286 35.4379L29.141 35.4818C29.2664 35.4531 29.3922 35.423 29.5177 35.3925L29.3286 35.4379C29.4507 35.4089 29.5724 35.3791 29.6946 35.3486L29.5177 35.3925C29.6609 35.3574 29.8044 35.3211 29.9476 35.2837L29.6946 35.3486C29.8022 35.3214 29.9095 35.2938 30.0172 35.2655L29.9476 35.2837C30.062 35.2539 30.1759 35.2231 30.2903 35.1919L30.0172 35.2655C30.1859 35.2209 30.3547 35.1748 30.5234 35.1269L30.2903 35.1919C30.4198 35.1563 30.5489 35.12 30.6784 35.0827L30.5234 35.1269C30.6422 35.0932 30.7609 35.0587 30.8797 35.0235L30.6784 35.0827C30.8098 35.0446 30.9408 35.0057 31.0721 34.9658L30.8797 35.0235C31.0026 34.9872 31.1258 34.9499 31.2486 34.9114L31.0721 34.9658C31.2001 34.9266 31.3282 34.8871 31.4562 34.8461L31.2486 34.9114C31.4081 34.8621 31.5672 34.8109 31.7267 34.7583L31.4562 34.8461C31.5831 34.8054 31.71 34.7641 31.8366 34.722L31.7267 34.7583C32.0223 34.661 32.318 34.5587 32.614 34.4513L32.7054 34.4168V29.9287C32.7054 27.6994 31.9106 25.6518 30.584 24.0439C30.557 24.0113 30.53 23.9786 30.5022 23.946L30.584 24.0439C30.547 23.9986 30.5093 23.954 30.4712 23.9097L30.5022 23.946C30.4183 23.8466 30.332 23.7493 30.244 23.6539C30.2284 23.6368 30.2129 23.6201 30.1974 23.6034L30.244 23.6539C30.2059 23.6122 30.1674 23.5711 30.1285 23.5305L30.1973 23.6034C30.0904 23.4891 29.9805 23.3774 29.868 23.2685C29.8569 23.2573 29.8455 23.246 29.834 23.2348L29.868 23.2685C29.8295 23.2312 29.7911 23.1941 29.7518 23.1575L29.834 23.2348C29.7903 23.1931 29.7467 23.1517 29.7023 23.1111L29.7518 23.1575C29.0322 22.4837 28.2056 21.9187 27.2994 21.4898C27.2694 21.4753 27.2394 21.4615 27.2091 21.4477L27.2994 21.4898C27.2283 21.4565 27.1565 21.4238 27.0847 21.3919C27.0422 21.3726 26.9996 21.3541 26.9567 21.336L27.0847 21.3919C27.0337 21.369 26.9823 21.3469 26.9305 21.3251L26.9567 21.336C26.9034 21.3135 26.8502 21.2914 26.7969 21.2696L26.9305 21.3251C26.8605 21.2953 26.7902 21.2667 26.7195 21.2387L26.7969 21.2696C26.7336 21.2442 26.67 21.2191 26.6063 21.1948L26.7195 21.2387C26.6674 21.2184 26.6148 21.1981 26.5623 21.1785L26.6063 21.1948C26.415 21.1223 26.2215 21.0559 26.0254 20.9956C26.0047 20.9891 25.984 20.9826 25.9629 20.9764L26.0254 20.9956C25.9566 20.9742 25.8874 20.9539 25.8178 20.9339L25.9629 20.9764C25.9059 20.959 25.8485 20.9423 25.7912 20.9263L25.8178 20.9339C25.5584 20.8603 25.295 20.7975 25.0282 20.7456C25.0149 20.7427 25.0019 20.7402 24.989 20.7376L25.0282 20.7456C24.8957 20.7195 24.7625 20.6966 24.6282 20.6763C24.6171 20.6741 24.6056 20.6723 24.5942 20.6709L24.6282 20.6763C24.4872 20.6546 24.3452 20.6364 24.2023 20.6212C24.192 20.6197 24.1816 20.6186 24.1713 20.6175L24.2023 20.6212C24.1376 20.6143 24.0728 20.6077 24.0081 20.6023L24.1713 20.6175C24.0899 20.6092 24.0081 20.6019 23.9259 20.5954L24.0081 20.6023C23.9485 20.5972 23.8886 20.5925 23.8286 20.5882L23.9259 20.5954C23.8638 20.5903 23.8012 20.5863 23.7387 20.5823L23.8286 20.5882C23.7591 20.5834 23.6895 20.5794 23.6199 20.5762L23.7387 20.5823C23.6743 20.5787 23.6103 20.5755 23.5456 20.5729L23.6199 20.5762C23.4664 20.5689 23.3121 20.5653 23.157 20.5653L23.1572 20.5653ZM34.8271 23.6866C34.2322 23.6866 33.6497 23.7664 33.0914 23.9214C34.1922 25.6674 34.8271 27.7255 34.8271 29.9288V34.0904C36.9414 34.0904 39.059 33.7112 41.1851 32.9503L41.1925 32.9471V29.9289C41.1925 26.5344 38.4296 23.7727 34.9888 23.6885L34.8271 23.6866ZM11.4872 23.6866C7.97175 23.6866 5.12189 26.4813 5.12189 29.9288V32.9473L5.4845 33.074C7.37935 33.7144 9.26786 34.0514 11.1535 34.087L11.4873 34.0903V29.9287C11.4873 27.7254 12.1222 25.6673 13.2226 23.9213C12.6646 23.7663 12.0822 23.6865 11.4873 23.6865L11.4872 23.6866ZM34.8271 15.3634C33.0695 15.3634 31.6446 16.7608 31.6446 18.4847C31.6446 20.2087 33.0695 21.606 34.8271 21.606C36.5851 21.606 38.01 20.2087 38.01 18.4847C38.01 16.7608 36.5851 15.3634 34.8271 15.3634V15.3634ZM11.4872 15.3634C9.72925 15.3634 8.30432 16.7608 8.30432 18.4847C8.30432 20.2087 9.72925 21.606 11.4872 21.606C13.2448 21.606 14.6698 20.2087 14.6698 18.4847C14.6698 16.7608 13.2448 15.3634 11.4872 15.3634V15.3634ZM23.1572 8.081C20.2274 8.081 17.8527 10.4098 17.8527 13.2829C17.8527 16.156 20.2274 18.4847 23.1572 18.4847C26.087 18.4847 28.4617 16.156 28.4617 13.2829C28.4617 10.4098 26.087 8.081 23.1572 8.081Z" fill="#A65E34"/>
</svg>
