<svg width="7" height="7" viewBox="0 0 7 7" fill="none" xmlns="http://www.w3.org/2000/svg">
<g clip-path="url(#clip0_297_2559)">
<path d="M4.54543 2.67285C4.95773 2.67285 5.35314 2.83664 5.64469 3.12818C5.93623 3.41972 6.10001 3.81513 6.10001 4.22743V6.04112H5.06362V4.22743C5.06362 4.09 5.00903 3.9582 4.91185 3.86102C4.81467 3.76384 4.68286 3.70924 4.54543 3.70924C4.40799 3.70924 4.27619 3.76384 4.17901 3.86102C4.08183 3.9582 4.02723 4.09 4.02723 4.22743V6.04112H2.99084V4.22743C2.99084 3.81513 3.15463 3.41972 3.44617 3.12818C3.73771 2.83664 4.13313 2.67285 4.54543 2.67285Z" fill="#212121"/>
<path d="M1.95442 2.93213H0.91803V6.0413H1.95442V2.93213Z" fill="#212121"/>
<path d="M1.43622 2.15455C1.72242 2.15455 1.95442 1.92255 1.95442 1.63636C1.95442 1.35017 1.72242 1.11816 1.43622 1.11816C1.15003 1.11816 0.91803 1.35017 0.91803 1.63636C0.91803 1.92255 1.15003 2.15455 1.43622 2.15455Z" fill="#212121"/>
</g>
<defs>
<clipPath id="clip0_297_2559">
<rect width="6.21833" height="6.21833" fill="white" transform="translate(0.399841 0.600098)"/>
</clipPath>
</defs>
</svg>
