<svg width="13" height="12" viewBox="0 0 13 12" fill="none" xmlns="http://www.w3.org/2000/svg">
<path opacity="0.1" fill-rule="evenodd" clip-rule="evenodd" d="M6.46729 11.3059C9.47229 11.3059 11.9083 8.86987 11.9083 5.86487C11.9083 2.85987 9.47229 0.423828 6.46729 0.423828C3.46228 0.423828 1.02625 2.85987 1.02625 5.86487C1.02625 8.86987 3.46228 11.3059 6.46729 11.3059Z" stroke="#212121" stroke-width="0.466375"/>
<g clip-path="url(#clip0_297_2557)">
<path d="M7.6592 4.67334C8.0715 4.67334 8.46691 4.83713 8.75845 5.12867C9.05 5.42021 9.21378 5.81562 9.21378 6.22792V8.0416H8.17739V6.22792C8.17739 6.09049 8.1228 5.95868 8.02562 5.8615C7.92844 5.76432 7.79663 5.70973 7.6592 5.70973C7.52176 5.70973 7.38996 5.76432 7.29278 5.8615C7.1956 5.95868 7.141 6.09049 7.141 6.22792V8.0416H6.10461V6.22792C6.10461 5.81562 6.2684 5.42021 6.55994 5.12867C6.85148 4.83713 7.2469 4.67334 7.6592 4.67334V4.67334Z" fill="#212121"/>
<path d="M5.06819 4.93262H4.0318V8.04178H5.06819V4.93262Z" fill="#212121"/>
<path d="M4.54999 4.15504C4.83618 4.15504 5.06819 3.92304 5.06819 3.63685C5.06819 3.35066 4.83618 3.11865 4.54999 3.11865C4.2638 3.11865 4.0318 3.35066 4.0318 3.63685C4.0318 3.92304 4.2638 4.15504 4.54999 4.15504Z" fill="#212121"/>
</g>
<defs>
<clipPath id="clip0_297_2557">
<rect width="6.21833" height="6.21833" fill="white" transform="translate(3.51361 2.60059)"/>
</clipPath>
</defs>
</svg>
