<svg width="45" height="45" viewBox="0 0 45 45" fill="none" xmlns="http://www.w3.org/2000/svg">
<rect width="45" height="45" fill="white"/>
<path d="M35.4943 2.92168L34.7217 2.69761C34.5187 2.62812 29.5413 1 22.8527 1C18.9153 1 15.161 1.5695 11.6996 2.69327L10.9742 2.92717C10.9257 3.05124 6.05378 16.0562 5.0039 27.7222C4.9795 27.9937 5.07034 28.2632 5.25475 28.4649C5.43882 28.6663 5.6995 28.7809 5.97205 28.7809H10.7948C10.0046 33.6237 9.25245 38.8631 9.25245 41.2721V42.0077L9.99788 42.2569C10.2914 42.3396 17.3054 44.3318 24.8903 44.3318H24.8924C29.4114 44.3318 33.2139 43.583 36.167 42.2019L36.7887 41.868L36.7666 41.1992C36.7365 40.8016 36.3049 34.9049 35.2761 28.78H39.9375C40.209 28.78 40.468 28.6668 40.6524 28.4671C40.8362 28.2678 40.9284 28.0007 40.9067 27.7305C39.8552 14.5927 35.6866 3.34592 35.4948 2.92156L35.4943 2.92168ZM31.0087 16.8804C29.7022 15.7865 27.4456 13.8621 25.07 11.6891C26.3164 10.861 28.273 8.79761 30.3212 3.64933C31.6562 3.90018 32.6894 4.16358 33.3111 4.33849C33.1501 8.41312 31.7195 14.2142 31.0087 16.8801V16.8804ZM22.8544 2.94597C24.8883 2.94597 26.7513 3.10937 28.3527 3.33005C26.0005 9.0562 23.9685 10.1322 23.5672 10.2935C21.0125 7.88396 18.5396 5.34189 17.1806 3.38732C19.0139 3.09681 20.9081 2.94597 22.8543 2.94597L22.8544 2.94597ZM15.1173 3.77921C17.8153 8.15592 26.3702 15.5337 29.6505 18.282C24.3321 19.9227 16.583 18.4176 14.4083 17.9369C13.8009 14.5813 13.2069 6.78993 13.0283 4.31928C13.7124 4.11521 14.4104 3.93758 15.1175 3.77927L15.1173 3.77921ZM7.0447 26.8378C7.82132 19.7126 9.93051 12.4495 11.3475 8.14429C11.6376 11.722 12.0827 16.4976 12.5482 18.7559C12.3882 19.621 11.7634 22.9921 11.1 26.9373L7.0447 26.8378ZM24.8912 42.3889H24.8892C18.9589 42.3889 13.264 41.0655 11.2906 40.5763C11.5245 35.7603 13.7107 23.4596 14.354 19.919C16.0052 20.2739 19.4338 20.9041 23.1172 20.9689C22.2134 23.1838 20.6043 27.652 20.6043 31.3982C20.6043 31.9348 21.0399 32.37 21.5761 32.37C22.1127 32.37 22.548 31.9344 22.548 31.3982C22.548 28.5232 23.6497 25.0408 24.5006 22.7784C25.0151 23.8255 25.6721 25.4455 26.2738 27.7825C26.3867 28.2209 26.7816 28.512 27.2145 28.512C27.2942 28.512 27.3759 28.5019 27.4576 28.4815C27.9773 28.348 28.2901 27.8181 28.1566 27.2977C27.304 23.9878 26.3288 21.9726 25.7057 20.9119C27.5576 20.7895 29.3844 20.4783 31.0004 19.8729C33.3279 26.0743 34.459 37.7749 34.7137 40.7142C32.1082 41.7935 28.8085 42.3898 24.8901 42.3898L24.8912 42.3889ZM34.9283 26.8378C34.3455 23.7588 33.6059 20.7634 32.6845 18.5258C33.051 17.2335 34.3924 12.5542 35.0805 8.13899C36.2547 11.8713 38.0978 18.7072 38.8758 26.8385L34.9283 26.8382V26.8378Z" fill="#A65E34"/>
</svg>
