<svg width="7" height="8" viewBox="0 0 7 8" fill="none" xmlns="http://www.w3.org/2000/svg">
<g clip-path="url(#clip0_297_2566)">
<path d="M2.04602 1.68799V4.79715" stroke="#212121" stroke-width="0.621833" stroke-linecap="round" stroke-linejoin="round"/>
<path d="M5.15522 3.24257C5.58451 3.24257 5.93251 2.89457 5.93251 2.46528C5.93251 2.03599 5.58451 1.68799 5.15522 1.68799C4.72594 1.68799 4.37793 2.03599 4.37793 2.46528C4.37793 2.89457 4.72594 3.24257 5.15522 3.24257Z" stroke="#212121" stroke-width="0.621833" stroke-linecap="round" stroke-linejoin="round"/>
<path d="M2.04609 6.35146C2.47538 6.35146 2.82338 6.00345 2.82338 5.57417C2.82338 5.14488 2.47538 4.79688 2.04609 4.79688C1.6168 4.79688 1.2688 5.14488 1.2688 5.57417C1.2688 6.00345 1.6168 6.35146 2.04609 6.35146Z" stroke="#212121" stroke-width="0.621833" stroke-linecap="round" stroke-linejoin="round"/>
<path d="M5.15524 3.24268C5.15524 3.86113 4.90956 4.45425 4.47225 4.89156C4.03494 5.32887 3.44182 5.57455 2.82336 5.57455" stroke="#212121" stroke-width="0.621833" stroke-linecap="round" stroke-linejoin="round"/>
</g>
<defs>
<clipPath id="clip0_297_2566">
<rect width="6.21833" height="6.21833" fill="white" transform="translate(0.491455 0.910645)"/>
</clipPath>
</defs>
</svg>
