<svg width="33" height="37" viewBox="0 0 33 37" fill="none" xmlns="http://www.w3.org/2000/svg">
<path d="M22.1896 30.5422C22.1381 30.5989 22.078 30.6468 22.0103 30.683C21.7783 30.808 21.4999 30.7763 21.2919 30.6016L16.4734 26.5471L12.0688 30.5114C11.8656 30.6945 11.583 30.7306 11.3433 30.6042C11.1035 30.4777 10.9494 30.2118 10.9475 29.9209L10.798 7.1133C10.7952 6.69772 11.0989 6.36364 11.4768 6.36652L21.5479 6.44642C21.9257 6.44942 22.2338 6.78836 22.2367 7.20405L22.3859 30.012C22.3875 30.2149 22.3146 30.4046 22.1893 30.5424L22.1896 30.5422ZM12.3049 28.3417L16.0139 25.0036C16.2575 24.7843 16.6084 24.7799 16.8621 24.9934L21.0087 28.4824L20.874 7.94555L12.1703 7.87684L12.3049 28.3417ZM18.0721 12.8713C17.6698 13.3138 17.1326 13.5553 16.5593 13.5507C15.9859 13.5463 15.4453 13.2962 15.0371 12.8472C14.6291 12.398 14.4018 11.8035 14.3977 11.1729C14.3936 10.542 14.613 9.951 15.0156 9.50816C15.4179 9.06558 15.9552 8.82414 16.5284 8.82868C17.1017 8.83321 17.642 9.08309 18.0505 9.53237C18.4589 9.98165 18.6859 10.5762 18.69 11.2068C18.6942 11.8375 18.4745 12.4286 18.0721 12.8713ZM15.9899 10.58C15.8441 10.7405 15.7642 10.955 15.7658 11.184C15.7675 11.4128 15.8495 11.6284 15.9977 11.7914C16.1457 11.9542 16.3418 12.0448 16.5499 12.0465C16.9658 12.05 17.3257 11.6533 17.3228 11.1963C17.321 10.9675 17.2388 10.7516 17.0907 10.5887C16.9427 10.4259 16.7467 10.3352 16.5388 10.3334C16.3305 10.332 16.1358 10.4195 15.99 10.58L15.9899 10.58Z" fill="white"/>
</svg>
