<svg width="45" height="45" viewBox="0 0 45 45" fill="none" xmlns="http://www.w3.org/2000/svg">
<rect width="45" height="45" fill="white"/>
<path d="M28.0116 25.6372C27.8052 25.6372 27.5947 25.5904 27.398 25.4928L21.8948 22.7411C21.4284 22.5073 21.1341 22.0312 21.1341 21.5097V11.8792C21.1341 11.1199 21.7504 10.5035 22.5098 10.5035C23.2692 10.5035 23.8855 11.1199 23.8855 11.8792V20.6595L28.628 23.0314C29.3076 23.3711 29.5827 24.198 29.243 24.8777C29.0023 25.3593 28.5165 25.6371 28.0116 25.6371L28.0116 25.6372ZM22.5098 38.0195C13.4058 38.0195 6 30.6137 6 21.5098C6 12.4058 13.4058 5 22.5098 5C31.6137 5 39.0195 12.4058 39.0195 21.5098C39.0195 30.6137 31.6137 38.0195 22.5098 38.0195ZM22.5098 7.75182C14.9235 7.75182 8.75182 13.9235 8.75182 21.5098C8.75182 29.096 14.9235 35.2677 22.5098 35.2677C30.096 35.2677 36.2677 29.096 36.2677 21.5098C36.2677 13.9235 30.096 7.75182 22.5098 7.75182V7.75182Z" fill="#A65E34"/>
</svg>
