<svg width="12" height="12" viewBox="0 0 12 12" fill="none" xmlns="http://www.w3.org/2000/svg">
<path opacity="0.1" fill-rule="evenodd" clip-rule="evenodd" d="M6.01319 11.3059C9.01819 11.3059 11.4542 8.86987 11.4542 5.86487C11.4542 2.85987 9.01819 0.423828 6.01319 0.423828C3.00818 0.423828 0.572144 2.85987 0.572144 5.86487C0.572144 8.86987 3.00818 11.3059 6.01319 11.3059Z" stroke="#212121" stroke-width="0.466375"/>
<g clip-path="url(#clip0_297_2560)">
<path d="M7.72324 3.11865H6.94595C6.60236 3.11865 6.27285 3.25514 6.0299 3.49809C5.78695 3.74104 5.65046 4.07055 5.65046 4.41414V5.19143H4.87317V6.22782H5.65046V8.3006H6.68685V6.22782H7.46414L7.72324 5.19143H6.68685V4.41414C6.68685 4.34542 6.71415 4.27952 6.76274 4.23093C6.81133 4.18234 6.87723 4.15504 6.94595 4.15504H7.72324V3.11865Z" fill="#212121"/>
</g>
<defs>
<clipPath id="clip0_297_2560">
<rect width="6.21833" height="6.21833" fill="white" transform="translate(3.05945 2.60059)"/>
</clipPath>
</defs>
</svg>
