<svg width="45" height="45" viewBox="0 0 45 45" fill="none" xmlns="http://www.w3.org/2000/svg">
<g clip-path="url(#clip0_4232_1910)">
<rect width="45" height="45" fill="white"/>
<path d="M34.8917 27.4262C37.2721 24.8129 38.7465 21.4813 39.0907 17.9389C39.4354 14.3962 38.6307 10.8362 36.7992 7.80098C34.9681 4.76544 32.2106 2.42093 28.9467 1.12348C25.6824 -0.173978 22.0901 -0.352894 18.7171 0.614002C15.3437 1.58094 12.3736 3.64054 10.2586 6.47953C8.14396 9.31852 7.00023 12.7812 7.00164 16.3415C7.0009 20.4581 8.5416 24.4212 11.3116 27.4272L7.05109 41.4971C6.92134 41.9418 7.04298 42.4229 7.36771 42.7489C7.69207 43.0749 8.1672 43.1932 8.60364 43.0566L13.5575 41.5641L16.8601 45.589C17.0887 45.89 17.4436 46.0641 17.8177 46.0588H18.0488C18.4937 45.96 18.8527 45.6276 18.9902 45.1866L22.7716 32.6423H23.6304L27.4118 45.1866C27.5489 45.6276 27.9079 45.96 28.3528 46.0588H28.5843C28.9584 46.064 29.3134 45.89 29.5419 45.589L32.8445 41.5641L37.7984 43.0566C38.2348 43.1932 38.7095 43.0749 39.0343 42.7489C39.3591 42.4228 39.4803 41.9418 39.3505 41.4971L34.8917 27.4262ZM17.2058 42.234L14.8447 39.3662C14.5258 38.9832 14.0149 38.8256 13.5402 38.9638L10.0559 40.0201L13.2759 29.3043C15.2822 30.8709 17.6246 31.934 20.1122 32.4068L17.2058 42.234ZM9.47793 16.3405C9.47793 12.6712 10.9132 9.15201 13.4679 6.5571C16.023 3.96257 19.4882 2.50488 23.1012 2.50488C26.7141 2.50488 30.1793 3.96257 32.7344 6.5571C35.2891 9.15201 36.7244 12.6712 36.7244 16.3405C36.7244 20.0098 35.2891 23.529 32.7344 26.1239C30.1793 28.7184 26.7141 30.1761 23.1012 30.1761C19.4893 30.1716 16.0267 28.7125 13.4727 26.119C10.9191 23.5252 9.48227 20.0086 9.47784 16.3404L9.47793 16.3405ZM32.5961 38.9633C32.121 38.8252 31.6105 38.9828 31.2917 39.3657L28.9799 42.2336L26.0241 32.4061C28.5114 31.9333 30.8539 30.8702 32.8604 29.3036L36.0805 40.0194L32.5961 38.9633Z" fill="#A65E34"/>
<path d="M29.162 12.9864L26.2722 12.5672L24.9844 9.91765H24.984C24.7526 9.43849 24.3523 9.06528 23.8628 8.87175C23.3733 8.67784 22.83 8.67784 22.3405 8.87175C21.851 9.06528 21.4507 9.4385 21.2192 9.91765L19.9313 12.5672L17.0412 12.9864C16.5259 13.0662 16.0582 13.3383 15.7298 13.7493C15.401 14.1604 15.2348 14.6811 15.2635 15.2096C15.2926 15.7382 15.5141 16.2372 15.8853 16.6089L17.9827 18.6884L17.4873 21.6063C17.3948 22.1312 17.5013 22.6721 17.7847 23.1206C18.0685 23.569 18.5086 23.8921 19.017 24.025C19.5253 24.1579 20.0642 24.0905 20.5256 23.8371L23.1017 22.3947L25.6778 23.7701V23.7697C25.9775 23.9333 26.3118 24.0198 26.652 24.0212C27.0962 24.0216 27.5289 23.8809 27.8905 23.6188C28.2049 23.3845 28.4489 23.0659 28.5945 22.6983C28.7405 22.3311 28.7825 21.9298 28.7161 21.5394L28.2208 18.6214L30.3181 16.542C30.6893 16.1702 30.9108 15.6712 30.9399 15.1426C30.9687 14.6137 30.8024 14.0934 30.4736 13.6824C30.1452 13.2713 29.6775 12.9992 29.1622 12.9195L29.162 12.9864ZM26.0245 17.3468C25.7404 17.6376 25.6113 18.0494 25.6777 18.4537L26.1399 21.2546L23.6796 19.9298V19.9294C23.3194 19.7295 22.8838 19.7295 22.5237 19.9294L20.0633 21.2542L20.5255 18.4533V18.4537C20.5919 18.0494 20.4629 17.6376 20.1787 17.3468L18.1478 15.3006L20.9056 14.8982C21.3048 14.8338 21.6491 14.5777 21.8301 14.2105L23.1018 11.6616L24.3402 14.2109V14.2105C24.5216 14.5777 24.8655 14.8338 25.265 14.8982L28.0229 15.3006L26.0245 17.3468Z" fill="#A65E34"/>
</g>
<defs>
<clipPath id="clip0_4232_1910">
<rect width="45" height="45" fill="white"/>
</clipPath>
</defs>
</svg>
